<?xml version="1.0" standalone="no"?>
<!DOCTYPE svg PUBLIC "-//W3C//DTD SVG 20010904//EN"
 "http://www.w3.org/TR/2001/REC-SVG-20010904/DTD/svg10.dtd">
<svg version="1.0" xmlns="http://www.w3.org/2000/svg"
 width="150.000000pt" height="150.000000pt" viewBox="0 0 150.000000 150.000000"
 preserveAspectRatio="xMidYMid meet">
<metadata>
Created by potrace 1.16, written by Peter Selinger 2001-2019
</metadata>
<g transform="translate(0.000000,150.000000) scale(0.100000,-0.100000)"
fill="#000000" stroke="none">
<path d="M470 1387 c-88 -30 -145 -65 -207 -127 -96 -98 -143 -215 -143 -361
0 -289 219 -509 509 -509 101 0 168 16 243 57 l53 30 197 -196 198 -196 47 48
48 47 -194 194 -194 194 22 30 c12 17 36 61 53 98 28 59 32 81 36 174 3 81 0
121 -13 166 -50 173 -173 301 -344 354 -90 28 -224 27 -311 -3z m352 -89 c92
-46 167 -122 211 -215 30 -64 32 -74 32 -183 0 -109 -2 -119 -32 -183 -44 -93
-119 -169 -212 -215 -73 -36 -77 -37 -191 -37 -114 0 -118 1 -191 37 -93 46
-168 122 -212 215 -30 64 -32 74 -32 183 0 109 2 119 32 182 54 114 146 197
268 241 38 13 74 17 151 15 93 -3 106 -6 176 -40z"/>
</g>
</svg>
